<?xml version="1.0" encoding="UTF-8" standalone="no"?>
<!DOCTYPE svg PUBLIC "-//W3C//DTD SVG 1.1//EN"
 "http://www.w3.org/Graphics/SVG/1.1/DTD/svg11.dtd">
<!-- Generated by graphviz version 2.43.0 (0)
 -->
<!-- Title: %3 Pages: 1 -->
<svg width="238pt" height="260pt"
 viewBox="0.00 0.00 237.94 260.00" xmlns="http://www.w3.org/2000/svg" xmlns:xlink="http://www.w3.org/1999/xlink">
<g id="graph0" class="graph" transform="scale(1 1) rotate(0) translate(4 256)">
<title>%3</title>
<polygon fill="white" stroke="transparent" points="-4,4 -4,-256 233.94,-256 233.94,4 -4,4"/>
<!-- 0 -->
<g id="node1" class="node">
<title>0</title>
<ellipse fill="none" stroke="black" cx="93.05" cy="-18" rx="59.59" ry="18"/>
<text text-anchor="middle" x="93.05" y="-14.3" font-family="Times,serif" font-size="14.00">&quot;sma_gap&quot;</text>
</g>
<!-- 1 -->
<g id="node2" class="node">
<title>1</title>
<ellipse fill="none" stroke="black" cx="136.05" cy="-90" rx="57.69" ry="18"/>
<text text-anchor="middle" x="136.05" y="-86.3" font-family="Times,serif" font-size="14.00">&quot;sma_diff&quot;</text>
</g>
<!-- 1&#45;&gt;0 -->
<g id="edge1" class="edge">
<title>1&#45;&gt;0</title>
<path fill="none" stroke="black" d="M125.64,-72.05C120.57,-63.8 114.36,-53.7 108.73,-44.54"/>
<polygon fill="black" stroke="black" points="111.58,-42.48 103.36,-35.79 105.61,-46.14 111.58,-42.48"/>
</g>
<!-- 2 -->
<g id="node3" class="node">
<title>2</title>
<ellipse fill="none" stroke="black" cx="50.05" cy="-162" rx="50.09" ry="18"/>
<text text-anchor="middle" x="50.05" y="-158.3" font-family="Times,serif" font-size="14.00">&quot;sma50&quot;</text>
</g>
<!-- 2&#45;&gt;0 -->
<g id="edge2" class="edge">
<title>2&#45;&gt;0</title>
<path fill="none" stroke="black" d="M52.56,-143.98C55.5,-125.86 61,-96.46 69.05,-72 72.03,-62.94 76.07,-53.35 80,-44.85"/>
<polygon fill="black" stroke="black" points="83.16,-46.35 84.31,-35.81 76.84,-43.33 83.16,-46.35"/>
</g>
<!-- 2&#45;&gt;1 -->
<g id="edge3" class="edge">
<title>2&#45;&gt;1</title>
<path fill="none" stroke="black" d="M69.56,-145.12C81.02,-135.78 95.7,-123.84 108.35,-113.55"/>
<polygon fill="black" stroke="black" points="110.76,-116.09 116.31,-107.06 106.35,-110.66 110.76,-116.09"/>
</g>
<!-- 3 -->
<g id="node4" class="node">
<title>3</title>
<ellipse fill="none" stroke="black" cx="174.05" cy="-162" rx="55.79" ry="18"/>
<text text-anchor="middle" x="174.05" y="-158.3" font-family="Times,serif" font-size="14.00">&quot;sma200&quot;</text>
</g>
<!-- 3&#45;&gt;1 -->
<g id="edge4" class="edge">
<title>3&#45;&gt;1</title>
<path fill="none" stroke="black" d="M164.85,-144.05C160.41,-135.89 155,-125.91 150.06,-116.82"/>
<polygon fill="black" stroke="black" points="153.01,-114.91 145.16,-107.79 146.85,-118.25 153.01,-114.91"/>
</g>
<!-- 4 -->
<g id="node5" class="node">
<title>4</title>
<ellipse fill="none" stroke="black" cx="112.05" cy="-234" rx="42.79" ry="18"/>
<text text-anchor="middle" x="112.05" y="-230.3" font-family="Times,serif" font-size="14.00">&quot;price&quot;</text>
</g>
<!-- 4&#45;&gt;2 -->
<g id="edge5" class="edge">
<title>4&#45;&gt;2</title>
<path fill="none" stroke="black" d="M97.67,-216.76C89.88,-207.97 80.1,-196.93 71.43,-187.14"/>
<polygon fill="black" stroke="black" points="74.03,-184.8 64.78,-179.63 68.79,-189.44 74.03,-184.8"/>
</g>
<!-- 4&#45;&gt;3 -->
<g id="edge6" class="edge">
<title>4&#45;&gt;3</title>
<path fill="none" stroke="black" d="M126.43,-216.76C134.22,-207.97 143.99,-196.93 152.66,-187.14"/>
<polygon fill="black" stroke="black" points="155.3,-189.44 159.31,-179.63 150.06,-184.8 155.3,-189.44"/>
</g>
</g>
</svg>
